# xmcd
#
# Track frame offsets: 
#        150
#        10897
#        29237
#        50845
#        71055
#        92360
#        110275
#        129330
#        151700
#        164960
#        177547
#        198605
#
# Disc length: 2897 seconds
#
# Revision: 1
# Processed by: cddbd v1.5.2PL0 Copyright (c) Steve Scherf et al.
# Submitted via: ExactAudioCopy v1.0b1
#
DISCID=aa0b4f0c
DTITLE=Aaron Neville - Devotion
DYEAR=2000
DGENRE=Gospel
TTITLE0=Mary Don't You Weep
TTITLE1=Jesus Is a Friend of Mine
TTITLE2=Banks of the River Jordan
TTITLE3=What Would Jesus Do
TTITLE4=Singing You a Prayer
TTITLE5=There is Still a Dream
TTITLE6=By Heart By Soul
TTITLE7=Bridge Over Troubled Water
TTITLE8=Morning Has Broken
TTITLE9=Where You There
TTITLE10=Jesus Loves Me
TTITLE11=I Shall Be Released
EXTD=
EXTT0=
EXTT1=
EXTT2=
EXTT3=
EXTT4=
EXTT5=
EXTT6=
EXTT7=
EXTT8=
EXTT9=
EXTT10=
EXTT11=
PLAYORDER=
